<svg id="Layer_1" data-name="Layer 1" xmlns="http://www.w3.org/2000/svg" viewBox="0 0 564.83 222.94"><defs><style>.cls-1{fill:#1d1d1b;}</style></defs><title>1400507LogoCtrlB_Registered</title><path class="cls-1" d="M134.67,365.69c-4.82-18.88-17-32.69-41-32.69-35.22,0-49.95,31.08-49.95,62.61s14.73,62.61,49.95,62.61c25.55,0,39.58-19.12,41.88-43.05h28.09c-2.3,39.36-30.16,66.52-70,66.52C44.46,481.69,15,442.56,15,395.61s29.46-86.08,78.71-86.08c37.05.22,66.29,20.71,69.74,56.16Z" transform="translate(-15 -309.53)"/><path class="cls-1" d="M171.58,352.07h21.56V313.23h28.58v38.84h25.81v21.3H221.72v69.18c0,11.77,1,17.78,13.77,17.78a49,49,0,0,0,12-1v22.06c-6.27.5-12.29,1.5-18.55,1.5-29.82,0-35.34-11.53-35.84-33.08V373.37H171.58Z" transform="translate(-15 -309.53)"/><path class="cls-1" d="M255.43,354.59h26.31v24.58h.49c3.19-13.52,19.91-28,37.11-28a65.87,65.87,0,0,1,10.57.74v27a100.25,100.25,0,0,0-12-1.23c-19.17,0-34.41,15.49-34.41,43.51v60.48h-28Z" transform="translate(-15 -309.53)"/><rect class="cls-1" x="322.82" y="0.65" width="25.5" height="172.83"/><path class="cls-1" d="M537.67,311.54H399.42L372,414v63.25a7,7,0,0,0,7,7H537.67a7,7,0,0,0,7-7V318.53a7,7,0,0,0-7-7M491.59,426.78h0A22.2,22.2,0,0,1,486,435a25.52,25.52,0,0,1-8.68,5.18,35,35,0,0,1-11.52,1.81H423V354h40.54c8.9,0,15.48,2.1,19.92,6.35s6.53,10,6.53,17.47a21.22,21.22,0,0,1-2.27,9.93,20.43,20.43,0,0,1-6.34,7.31,21.14,21.14,0,0,1,8.88,8.15,24.58,24.58,0,0,1,3.16,12.87,29.48,29.48,0,0,1-1.85,10.68" transform="translate(-15 -309.53)"/><path class="cls-1" d="M193.09,505.07h9.69a9.69,9.69,0,0,1,7.65,3.06,10.29,10.29,0,0,1,2.43,7.07,12.65,12.65,0,0,1-1.43,6Q208.9,526,202.74,526h-9.65Zm9,18.48h0a10,10,0,0,0,2.68-.3,5.86,5.86,0,0,0,3.07-2.13,8.27,8.27,0,0,0,1.37-3.25,10.93,10.93,0,0,0,.24-2.19,9.28,9.28,0,0,0-1.75-6q-1.76-2.14-5.64-2.15h-5.7v16Z" transform="translate(-15 -309.53)"/><path class="cls-1" d="M227.18,510.73H230v2.63a6.1,6.1,0,0,1,1.7-1.87,4.81,4.81,0,0,1,3.12-1.1h.28l.68.06v2.7l-.49,0-.49,0a4.6,4.6,0,0,0-3.45,1.25,4,4,0,0,0-1.2,2.87V526h-3Z" transform="translate(-15 -309.53)"/><path class="cls-1" d="M259.41,511.15a6.48,6.48,0,0,1,2.67,2,6.25,6.25,0,0,1,1.18,2.69,14.89,14.89,0,0,1,.27,3.36H250.67a5.91,5.91,0,0,0,1.26,3.73,4.49,4.49,0,0,0,3.65,1.41,5.12,5.12,0,0,0,3.69-1.33,4.49,4.49,0,0,0,1.09-1.79h2.92a4.82,4.82,0,0,1-.77,1.87,7,7,0,0,1-1.45,1.69,7.22,7.22,0,0,1-3.33,1.53,11,11,0,0,1-2.41.23,8,8,0,0,1-5.56-2.07,7.43,7.43,0,0,1-2.28-5.8,7.87,7.87,0,0,1,8.3-8.25,9,9,0,0,1,3.63.76m1.06,6h0a6,6,0,0,0-.83-2.66,4.48,4.48,0,0,0-4-1.85,4.83,4.83,0,0,0-3.41,1.28,4.44,4.44,0,0,0-1.45,3.23Z" transform="translate(-15 -309.53)"/><path class="cls-1" d="M286.91,516.75a1.65,1.65,0,0,0,1.37-.74,2,2,0,0,0,.19-1,2,2,0,0,0-1.08-1.9,6.39,6.39,0,0,0-3.08-.6,4.28,4.28,0,0,0-3.3,1.09,3.32,3.32,0,0,0-.71,1.79h-2.77a4.23,4.23,0,0,1,2.12-3.93,9.71,9.71,0,0,1,4.72-1.11,10.73,10.73,0,0,1,5.06,1,3.36,3.36,0,0,1,1.93,3.18v8.78a1,1,0,0,0,.19.64,1,1,0,0,0,.8.24,3.7,3.7,0,0,0,.45,0l.53-.06V526a7.09,7.09,0,0,1-1.06.21,8.24,8.24,0,0,1-1,0,2.58,2.58,0,0,1-2.23-.94,3.31,3.31,0,0,1-.51-1.41,7.47,7.47,0,0,1-2.61,1.78,9.15,9.15,0,0,1-3.74.75,6.15,6.15,0,0,1-4-1.28,4,4,0,0,1-1.56-3.22,3.91,3.91,0,0,1,1.53-3.29,8.06,8.06,0,0,1,4-1.43Zm-6.26,6.92h0a3.92,3.92,0,0,0,2.23.64,7.67,7.67,0,0,0,3-.63,3.51,3.51,0,0,0,2.47-3.39v-2.06a5.77,5.77,0,0,1-1.4.5,14.71,14.71,0,0,1-1.68.28l-1.79.2a7.83,7.83,0,0,0-2.43.58,2.23,2.23,0,0,0-1.38,2.13,2,2,0,0,0,.94,1.75" transform="translate(-15 -309.53)"/><path class="cls-1" d="M306.37,510.73h2.94v2.16a9.17,9.17,0,0,1,1.91-1.63,6.42,6.42,0,0,1,3.34-.87,5.82,5.82,0,0,1,3.4.9,4.93,4.93,0,0,1,1.32,1.5,6.15,6.15,0,0,1,2.33-1.81,7.4,7.4,0,0,1,3-.59c2.38,0,4,.74,4.85,2.22a6.42,6.42,0,0,1,.7,3.21V526h-3.09V515.39a2.33,2.33,0,0,0-.88-2.1,3.91,3.91,0,0,0-2.16-.57,4.7,4.7,0,0,0-3,1,4.1,4.1,0,0,0-1.26,3.38V526h-3V516a4.63,4.63,0,0,0-.43-2.26,2.77,2.77,0,0,0-2.53-1.07,4.73,4.73,0,0,0-3.06,1.13c-.92.75-1.38,2.11-1.38,4.07V526h-3Z" transform="translate(-15 -309.53)"/><polygon class="cls-1" points="357.01 195.42 374.06 195.42 374.06 198.02 360.34 198.02 360.34 204.45 372.4 204.45 372.4 206.97 360.34 206.97 360.34 216.6 357.01 216.6 357.01 195.42"/><path class="cls-1" d="M412.1,516.78a1.65,1.65,0,0,0,1.39-.75,2.37,2.37,0,0,0-.9-2.93,6.61,6.61,0,0,0-3.13-.6,4.33,4.33,0,0,0-3.34,1.1,3.32,3.32,0,0,0-.71,1.82h-2.82a4.32,4.32,0,0,1,2.15-4,9.85,9.85,0,0,1,4.79-1.12,11.06,11.06,0,0,1,5.13,1,3.42,3.42,0,0,1,1.95,3.23v8.9a1.09,1.09,0,0,0,.19.65,1,1,0,0,0,.82.24l.45,0,.53-.06v1.91a6.44,6.44,0,0,1-2.07.26,2.61,2.61,0,0,1-2.26-1,3.4,3.4,0,0,1-.52-1.43,7.43,7.43,0,0,1-2.64,1.81,9.44,9.44,0,0,1-3.8.76,6.17,6.17,0,0,1-4.07-1.3,4.05,4.05,0,0,1-1.58-3.27,3.93,3.93,0,0,1,1.55-3.32,8,8,0,0,1,4.08-1.46Zm-6.35,7h0a4,4,0,0,0,2.26.64,7.82,7.82,0,0,0,3.08-.63,3.56,3.56,0,0,0,2.51-3.44v-2.09a5.93,5.93,0,0,1-1.42.51,15.11,15.11,0,0,1-1.7.29l-1.82.2a7.74,7.74,0,0,0-2.46.59,2.26,2.26,0,0,0-1.4,2.16,2,2,0,0,0,.95,1.77" transform="translate(-15 -309.53)"/><path class="cls-1" d="M443.66,511.51a5.76,5.76,0,0,1,2.28,4.37H443a4.34,4.34,0,0,0-1.23-2.37,4.2,4.2,0,0,0-3.06-1,4.27,4.27,0,0,0-4.11,2.42,8.41,8.41,0,0,0-.81,3.88,6.52,6.52,0,0,0,1.14,3.9,4.12,4.12,0,0,0,3.58,1.58,4.26,4.26,0,0,0,3-1,5.17,5.17,0,0,0,1.52-2.69h2.92a6.48,6.48,0,0,1-2.51,4.49,8.71,8.71,0,0,1-5.13,1.42,7.36,7.36,0,0,1-5.61-2.22,7.73,7.73,0,0,1-2.09-5.53,8.49,8.49,0,0,1,2.3-6.33,7.93,7.93,0,0,1,5.83-2.26,8.69,8.69,0,0,1,4.93,1.27" transform="translate(-15 -309.53)"/><path class="cls-1" d="M459.83,506.37h3.05v4.31h2.86v2.13h-2.86v10.08a1.07,1.07,0,0,0,.63,1.08,3.25,3.25,0,0,0,1.17.16h.47c.17,0,.37,0,.59,0v2.06a7.61,7.61,0,0,1-1.08.19,11.39,11.39,0,0,1-1.21.06,3.5,3.5,0,0,1-2.86-.94,3.64,3.64,0,0,1-.76-2.41V512.81h-2.42v-2.13h2.42Z" transform="translate(-15 -309.53)"/><path class="cls-1" d="M492,512.23a7.19,7.19,0,0,1,2.37,5.85,9.09,9.09,0,0,1-2.09,6.16c-1.39,1.63-3.56,2.44-6.49,2.44a7.87,7.87,0,0,1-5.83-2.16,7.79,7.79,0,0,1-2.16-5.78,8.46,8.46,0,0,1,2.27-6.2,8.24,8.24,0,0,1,6.11-2.3,8.75,8.75,0,0,1,5.82,2m-1.87,10.26h0a8.72,8.72,0,0,0,1.1-4.34,6.86,6.86,0,0,0-.8-3.51,4.59,4.59,0,0,0-4.33-2.14,4.47,4.47,0,0,0-4,1.82,7.55,7.55,0,0,0-1.24,4.38,6.58,6.58,0,0,0,1.24,4.1,4.61,4.61,0,0,0,3.94,1.64c2,0,3.33-.65,4.06-2" transform="translate(-15 -309.53)"/><path class="cls-1" d="M508.44,510.68h2.86v2.67a6.13,6.13,0,0,1,1.72-1.89,4.86,4.86,0,0,1,3.17-1.12h.28l.69.06v2.74l-.5-.06h-.49a4.66,4.66,0,0,0-3.5,1.26,4.07,4.07,0,0,0-1.22,2.91v8.88h-3Z" transform="translate(-15 -309.53)"/><path class="cls-1" d="M541.24,510.68h3.33l-2.83,6.79q-1.63,4-2.74,6.49a42,42,0,0,1-3.67,7.21,4.56,4.56,0,0,1-3.68,1.29,8.22,8.22,0,0,1-1,0,8,8,0,0,1-.84-.16v-2.37a11.39,11.39,0,0,0,1.13.24c.24,0,.44,0,.62,0a2.42,2.42,0,0,0,1.23-.24,2.46,2.46,0,0,0,.66-.58c0-.08.25-.47.6-1.18l.75-1.58-6.63-15.91h3.42l4.8,12.59Z" transform="translate(-15 -309.53)"/><path class="cls-1" d="M562.12,330.5v-13h5.77a7.58,7.58,0,0,1,2.65.35,2.84,2.84,0,0,1,1.44,1.24,3.68,3.68,0,0,1,.54,2,3.29,3.29,0,0,1-.89,2.33,4.55,4.55,0,0,1-2.77,1.21,4.47,4.47,0,0,1,1,.65,8.42,8.42,0,0,1,1.42,1.73l2.27,3.54h-2.17l-1.72-2.71c-.5-.78-.92-1.38-1.24-1.79a3.71,3.71,0,0,0-.88-.87,2.57,2.57,0,0,0-.78-.35,5.44,5.44,0,0,0-1-.06h-2v5.78Zm1.72-7.27h3.7a5.34,5.34,0,0,0,1.85-.25,2,2,0,0,0,1-.78,2.08,2.08,0,0,0,.35-1.16,2,2,0,0,0-.67-1.52,3.14,3.14,0,0,0-2.12-.6h-4.12Z" transform="translate(-15 -309.53)"/><path class="cls-1" d="M567.1,337.06a12.73,12.73,0,1,1,12.73-12.73A12.74,12.74,0,0,1,567.1,337.06Zm0-22.46a9.73,9.73,0,1,0,9.73,9.73A9.73,9.73,0,0,0,567.1,314.6Z" transform="translate(-15 -309.53)"/></svg>